<svg width="55" height="55" viewBox="0 0 55 55" fill="none" xmlns="http://www.w3.org/2000/svg">
<path d="M49.9706 23.0117H48.1247V22.9166H27.4997V32.0833H40.451C38.5615 37.4194 33.4844 41.2499 27.4997 41.2499C19.9062 41.2499 13.7497 35.0934 13.7497 27.4999C13.7497 19.9065 19.9062 13.7499 27.4997 13.7499C31.0048 13.7499 34.1936 15.0722 36.6217 17.2321L43.1036 10.7501C39.0107 6.93565 33.5359 4.58325 27.4997 4.58325C14.8439 4.58325 4.58301 14.8442 4.58301 27.4999C4.58301 40.1556 14.8439 50.4166 27.4997 50.4166C40.1554 50.4166 50.4163 40.1556 50.4163 27.4999C50.4163 25.9634 50.2582 24.4635 49.9706 23.0117Z" fill="#FFC107"/>
<path d="M7.22559 16.8334L14.7549 22.3551C16.7921 17.3112 21.7261 13.7499 27.5 13.7499C31.0051 13.7499 34.1939 15.0722 36.6219 17.2321L43.1039 10.7501C39.011 6.93565 33.5362 4.58325 27.5 4.58325C18.6977 4.58325 11.0641 9.55273 7.22559 16.8334Z" fill="#FF3D00"/>
<path d="M27.5002 50.4167C33.4196 50.4167 38.7981 48.1514 42.8647 44.4676L35.772 38.4657C33.3938 40.2743 30.4879 41.2524 27.5002 41.2501C21.5396 41.2501 16.4784 37.4493 14.5718 32.1453L7.09863 37.9031C10.8913 45.3246 18.5936 50.4167 27.5002 50.4167Z" fill="#4CAF50"/>
<path d="M49.9709 23.0119H48.125V22.9167H27.5V32.0834H40.4514C39.5475 34.6231 37.9195 36.8423 35.7683 38.4669L35.7718 38.4646L42.8645 44.4664C42.3626 44.9225 50.4167 38.9584 50.4167 27.5001C50.4167 25.9635 50.2585 24.4636 49.9709 23.0119Z" fill="#1976D2"/>
</svg>
